Land_normalized_pl15_filtered_grf
version=1
nRows=10
nColumns=37
inDegrees=yes
endheader
time		1_ground_force_vx		1_ground_force_vy		1_ground_force_vz		1_ground_force_px		1_ground_force_py		1_ground_force_pz		1_ground_torque_x		1_ground_torque_y		1_ground_torque_z		2_ground_force_vx		2_ground_force_vy		2_ground_force_vz		2_ground_force_px		2_ground_force_py		2_ground_force_pz		2_ground_torque_x		2_ground_torque_y		2_ground_torque_z		3_ground_force_vx		3_ground_force_vy		3_ground_force_vz		3_ground_force_px		3_ground_force_py		3_ground_force_pz		3_ground_torque_x		3_ground_torque_y		3_ground_torque_z		4_ground_force_vx		4_ground_force_vy		4_ground_force_vz		4_ground_force_px		4_ground_force_py		4_ground_force_pz		4_ground_torque_x		4_ground_torque_y		4_ground_torque_z		
2.101167		-54.265643		587.778291		166.884503		0.099197		0.000000		0.199127		-0.597536		6.472265		1.837643		22.148401		772.591953		193.800513		-0.126297		0.000000		0.226282		-0.096806		-3.376841		-0.847062		22.525519		1.913420		0.130483		0.375618		1.310945		1.913742		-0.095639		-0.008124		-0.000554		-19.051599		-0.398036		1.335101		-0.265511		1.309924		1.924898		0.012084		0.000252		-0.000847		
2.104828		-56.608932		586.546899		161.174860		0.099602		0.000000		0.199155		-0.602359		6.241301		1.715029		21.434357		771.245408		191.135494		-0.126565		0.000000		0.226339		-0.093265		-3.355829		-0.831666		22.509477		1.957264		0.096961		0.375590		1.310921		1.913742		-0.098495		-0.008564		-0.000424		-18.973296		-0.547860		1.392113		-0.265500		1.309912		1.924901		0.011223		0.000324		-0.000823		
2.108490		-58.458295		585.931910		155.646206		0.099870		0.000000		0.199267		-0.609292		6.106977		1.622250		21.696144		771.654797		187.938094		-0.126997		0.000000		0.226520		-0.090131		-3.205646		-0.780742		22.517946		2.037160		0.110574		0.375580		1.310897		1.913750		-0.099976		-0.009045		-0.000491		-18.899575		-0.662849		1.429089		-0.265476		1.309902		1.924901		0.009716		0.000341		-0.000734		
2.112152		-59.663475		585.757855		150.659115		0.099962		0.000000		0.199384		-0.618585		6.073078		1.562018		22.923883		773.462074		184.269101		-0.127586		0.000000		0.226814		-0.087368		-2.947894		-0.702311		22.571424		2.089277		0.163851		0.375591		1.310872		1.913762		-0.098818		-0.009147		-0.000717		-18.857303		-0.733098		1.414804		-0.265449		1.309893		1.924905		0.008278		0.000322		-0.000621		
2.115813		-60.088210		585.798338		146.367738		0.099819		0.000000		0.199359		-0.630126		6.143081		1.534908		24.789208		776.133424		179.994924		-0.128265		0.000000		0.227218		-0.085367		-2.672876		-0.619880		22.679497		2.070591		0.230809		0.375625		1.310847		1.913776		-0.094917		-0.008666		-0.000966		-18.872319		-0.748086		1.378841		-0.265424		1.309887		1.924922		0.007650		0.000303		-0.000559		
2.119475		-59.648519		585.885196		142.719716		0.099432		0.000000		0.199116		-0.642809		6.313853		1.538033		26.978656		778.993133		175.074776		-0.128972		0.000000		0.227710		-0.084611		-2.443114		-0.549079		22.829044		1.991129		0.283832		0.375670		1.310826		1.913788		-0.089604		-0.007815		-0.001114		-18.951551		-0.692513		1.374064		-0.265404		1.309885		1.924948		0.008256		0.000302		-0.000598		
2.123136		-58.335516		585.955091		139.511107		0.098845		0.000000		0.198695		-0.654700		6.576209		1.565736		29.408481		781.320706		169.755488		-0.129686		0.000000		0.228223		-0.084225		-2.237751		-0.486196		22.985254		1.902126		0.307026		0.375720		1.310816		1.913795		-0.085074		-0.007040		-0.001136		-19.075893		-0.563698		1.427875		-0.265386		1.309885		1.924979		0.010284		0.000304		-0.000770		
2.126798		-56.243380		586.016849		136.417623		0.098126		0.000000		0.198195		-0.664662		6.925386		1.612137		32.118977		782.526499		164.465274		-0.130412		0.000000		0.228677		-0.081763		-1.992142		-0.418702		23.106920		1.855325		0.307889		0.375768		1.310822		1.913800		-0.083235		-0.006683		-0.001109		-19.205540		-0.395104		1.522364		-0.265364		1.309891		1.925007		0.013769		0.000283		-0.001092		
2.130460		-53.557512		586.101394		133.072359		0.097337		0.000000		0.197714		-0.672629		7.360884		1.671260		35.007947		782.269506		159.518292		-0.131137		0.000000		0.229024		-0.075428		-1.685513		-0.343708		23.163816		1.873462		0.311199		0.375810		1.310844		1.913805		-0.084824		-0.006860		-0.001140		-19.297404		-0.255474		1.618181		-0.265332		1.309900		1.925029		0.018179		0.000240		-0.001524		
2.134121		-50.523018		586.253257		129.188424		0.096537		0.000000		0.197340		-0.677926		7.866554		1.733483		37.737273		780.466952		154.958864		-0.131812		0.000000		0.229264		-0.066470		-1.374761		-0.272959		23.144169		1.948133		0.334795		0.375846		1.310872		1.913812		-0.089232		-0.007511		-0.001291		-19.322325		-0.216178		1.688822		-0.265291		1.309911		1.925044		0.022106		0.000247		-0.001932		
